<svg version="1.1" id="Layer_2_00000056406385038739180580000009675179151028399249_" xmlns="http://www.w3.org/2000/svg" x="0px" y="0px" viewBox="0 0 220.3 39.2" fill="#c0c1c6" class="h-7 w-fit sm:h-9 fill-gray-400"><g id="Layer_1-2"><g><g><path d="M61.8,38.2l1.1-0.2l1.9-11l-1.1-0.2l0.2-0.8h3.6l-0.2,0.8L66.3,27l-0.8,4.7h5.8l0.8-4.7l-1.1-0.2l0.2-0.8
                    h3.7l-0.2,0.8L73.7,27l-1.9,11l1.1,0.2L72.6,39H69l0.2-0.8l1.1-0.2l0.9-5.2h-5.8L64.4,38l1.1,0.2L65.3,39h-3.7L61.8,38.2
                    L61.8,38.2z"></path><path d="M75.8,32.3c0.6-1.3,1.5-2.2,3.7-2.2c2.4,0,3,1.1,3,2.7c0,1.1-0.3,2.9-0.8,4.2c-0.6,1.3-1.5,2.2-3.7,2.2
                    c-2.4,0-3-1.1-3-2.7C75,35.4,75.2,33.6,75.8,32.3L75.8,32.3z M80.5,36c0.3-0.9,0.5-2.3,0.5-3.2c0-1.2-0.5-1.7-1.7-1.7
                    c-1.6,0-2.2,0.9-2.5,2.1c-0.3,1-0.5,2.4-0.5,3.2c0,1.2,0.5,1.7,1.7,1.7C79.6,38.1,80.1,37.3,80.5,36z"></path><path d="M85.4,31.2L84.5,31l0.2-0.8h2.1l0,0.6c0.9-0.4,2-0.8,2.8-0.8s1.4,0.4,1.6,0.9c1-0.5,2.2-0.9,3.2-0.9
                    c1.2,0,1.8,0.7,1.8,1.7c0,0.3,0,0.6-0.1,1L95.1,38l0.9,0.2L95.9,39h-2.3l1.1-6c0.1-0.4,0.1-0.7,0.1-0.9c0-0.6-0.2-0.9-0.9-0.9
                    c-0.6,0-1.6,0.3-2.4,0.7c0,0.3-0.1,0.6-0.1,1L90.3,38l0.9,0.2L91.1,39h-2.3l1.1-6c0.1-0.3,0.1-0.7,0.1-1c0-0.5-0.2-0.9-0.9-0.9
                    c-0.6,0-1.5,0.2-2.3,0.6L85.4,39h-1.4L85.4,31.2L85.4,31.2z"></path><path d="M103.9,38.7c-0.9,0.2-2.1,0.5-3.1,0.5c-2.1,0-2.9-1-2.9-2.8c0-1.1,0.3-2.9,0.9-4.2c0.7-1.3,1.7-2.2,3.5-2.2
                    c1.9,0,2.6,1,2.6,2.6c0,0.4,0,0.9-0.2,1.5l-0.2,0.9h-5.2c-0.1,0.4-0.1,0.8-0.1,1.3c0,1.3,0.5,1.8,1.9,1.8c0.8,0,1.6-0.2,2.4-0.4
                    L103.9,38.7L103.9,38.7z M103.5,34c0.1-0.5,0.2-1,0.2-1.4c0-0.9-0.3-1.6-1.4-1.6c-1.4,0-2.1,1.1-2.5,2.9L103.5,34L103.5,34z"></path><path d="M110.2,38.2l1.1-0.2l1.9-11l-1.1-0.2l0.2-0.8h3.7l-0.2,0.8l-1.1,0.2l-1.9,10.9h4.8l0.4-1.5h1.1l-0.5,2.7H110
                    L110.2,38.2L110.2,38.2z"></path><path d="M121.6,32.3c0.6-1.3,1.5-2.2,3.7-2.2c2.4,0,3,1.1,3,2.7c0,1.1-0.3,2.9-0.8,4.2c-0.6,1.3-1.5,2.2-3.7,2.2
                    c-2.4,0-3-1.1-3-2.7C120.8,35.4,121,33.6,121.6,32.3z M126.3,36c0.3-0.9,0.5-2.3,0.5-3.2c0-1.2-0.5-1.7-1.7-1.7
                    c-1.6,0-2.2,0.9-2.5,2.1c-0.3,1-0.5,2.4-0.5,3.2c0,1.2,0.5,1.7,1.7,1.7C125.4,38.1,125.9,37.3,126.3,36z"></path><path d="M135,38.3c-0.9,0.5-1.8,0.9-2.8,0.9c-1.7,0-2.3-1.2-2.3-2.6c0-1,0.3-3,0.9-4.3c0.7-1.6,1.8-2.3,3.2-2.3
                    c0.9,0,1.6,0.2,2.3,0.7l0.2-0.5h1.2l-1.4,7.8l0.9,0.2l-0.1,0.8H135L135,38.3L135,38.3z M136.1,31.6c-0.7-0.3-1.3-0.5-1.9-0.5
                    c-1.2,0-1.8,0.8-2.1,1.9c-0.4,1.1-0.6,2.5-0.6,3.4c0,1.2,0.5,1.7,1.4,1.7c0.7,0,1.5-0.3,2.3-0.7L136.1,31.6L136.1,31.6z"></path><path d="M140.5,31.2l-0.9-0.2l0.1-0.8h2.1V31c1.1-0.5,2.1-0.9,3.1-0.9c1.4,0,1.9,0.8,1.9,1.9c0,0.2,0,0.6-0.1,1.1
                    l-0.9,5l0.9,0.2l-0.2,0.8h-2.3l1-5.9c0.1-0.4,0.1-0.7,0.1-1c0-0.6-0.2-1-1.1-1c-0.7,0-1.7,0.3-2.7,0.8l-1.2,7.1h-1.4L140.5,31.2
                    L140.5,31.2z"></path><path d="M148.6,36.7h1l-0.1,1.2c0.5,0.1,1,0.2,1.5,0.2c0.6,0,1.3-0.1,1.7-0.4c0.3-0.2,0.6-0.7,0.6-1.3
                    c0-0.8-0.5-1-1.6-1.4c-1.4-0.4-2.4-0.8-2.4-2.2c0-1,0.5-1.9,1.4-2.3c0.6-0.3,1.3-0.5,2.3-0.5c1,0,1.9,0.2,2.5,0.4l-0.4,2h-1
                    l0.1-1.3c-0.4-0.1-0.9-0.1-1.2-0.1c-0.7,0-1.3,0.1-1.6,0.4c-0.4,0.3-0.6,0.7-0.6,1.2c0,0.8,0.5,0.9,1.7,1.3
                    c1.5,0.5,2.4,0.8,2.4,2.2c0,1.1-0.5,2-1.4,2.5c-0.7,0.4-1.6,0.5-2.4,0.5c-1.1,0-2.1-0.2-2.8-0.4L148.6,36.7L148.6,36.7z"></path></g><g><path d="M59.5,6.5L58,6.2V5.2h4.8v1.1l-1.3,0.2l2.7,7.9c0.8,2.4,1.4,4.2,1.8,6h0.1c0.4-1.8,0.9-3.3,1.8-5.9l2.8-8
                    l-1.3-0.2V5.2h4.4v1.1l-1.4,0.2l-5.3,15.3h-2.3L59.5,6.5L59.5,6.5z"></path><path d="M81.1,21.5C80,21.8,78.6,22,77.3,22c-3.6,0-4.6-2.2-4.6-5.6s0.9-6.1,4.5-6.1c3.1,0,4.1,2,4.1,4.9v1.5h-6.8
                    c0.1,2.6,0.7,3.9,3.1,3.9c1,0,2.1-0.2,3.1-0.5C80.8,20.2,81.1,21.5,81.1,21.5z M79.6,15.5c0-2-0.2-3.8-2.4-3.8
                    c-1.9,0-2.6,1.3-2.7,3.8H79.6L79.6,15.5z"></path><path d="M84.8,12h-1.7v-1.1l1.8-0.3l0.4-3h1.3v3h2.9V12h-2.9v7.2c0,1.1,0.4,1.5,1.5,1.5c0.4,0,0.8,0,1.2-0.1l0.2,1.2
                    c-0.5,0.1-1.2,0.2-1.9,0.2c-1.8,0-2.7-0.7-2.7-2.7L84.8,12L84.8,12z"></path><path d="M99.5,21.5C98.4,21.8,97,22,95.7,22c-3.6,0-4.6-2.2-4.6-5.6s0.9-6.1,4.5-6.1c3.1,0,4.1,2,4.1,4.9v1.5h-6.8
                    c0.1,2.6,0.7,3.9,3.1,3.9c1,0,2.1-0.2,3.1-0.5L99.5,21.5L99.5,21.5z M98,15.5c0-2-0.2-3.8-2.4-3.8c-1.9,0-2.6,1.3-2.7,3.8
                    C93,15.5,98,15.5,98,15.5z"></path><path d="M101.8,20.8l1.2-0.2v-8.7l-1.2-0.2v-1.1h2.7l0.2,1.5c1.1-1.2,2.1-1.7,3.3-1.7c0.3,0,0.5,0,0.8,0.1l-0.1,1.6
                    c-0.3-0.1-0.5-0.1-0.8-0.1c-1.1,0-2.1,0.5-3.1,1.4v7.2l1.6,0.2v1h-4.6L101.8,20.8L101.8,20.8z"></path><path d="M117.4,20.9c-0.9,0.6-2.1,1.2-3.5,1.2c-2.1,0-3.4-1.1-3.4-3.3c0-2.6,2-3.5,4.6-3.5c0.7,0,1.5,0.1,2.2,0.1
                    v-1.3c0-1.6-0.3-2.4-2.3-2.4c-1.1,0-2.2,0.2-3.3,0.4l-0.2-1.4c1.2-0.2,2.6-0.4,3.8-0.4c2.7,0,3.8,1,3.8,3.6v6.6l1.2,0.2v1h-2.7
                    L117.4,20.9L117.4,20.9z M117.3,16.6c-0.5,0-1.4-0.1-1.9-0.1c-2,0-3,0.6-3,2.2c0,1.3,0.7,2,2.2,2c1,0,1.9-0.4,2.8-0.9L117.3,16.6
                    L117.3,16.6z"></path><path d="M122.2,20.8l1.2-0.2v-8.7l-1.2-0.2v-1.1h2.7l0.2,1c1.3-0.7,2.6-1.2,4.1-1.2c2.4,0,3,1.6,3,3.8v6.4l1.2,0.2v1
                    h-3v-7.5c0-1.4-0.2-2.6-1.7-2.6c-1,0-2.2,0.4-3.4,1.1v7.7l1.2,0.2v1h-4.3L122.2,20.8L122.2,20.8z"></path><path d="M135.3,18.9h1.3l0.2,1.6c0.6,0.1,1.4,0.2,2.1,0.2c1.7,0,2.7-0.5,2.7-1.8s-1-1.6-2.5-2
                    c-1.9-0.6-3.8-1.1-3.8-3.3s1.8-3.2,4.3-3.2c1.2,0,2.4,0.2,3.3,0.5l-0.1,2.6h-1.3l-0.1-1.6c-0.5-0.1-1.2-0.1-1.7-0.1
                    c-1.8,0-2.6,0.6-2.6,1.7c0,1.2,0.9,1.5,2.6,2c1.8,0.5,3.6,1.1,3.6,3.4c0,2.1-1.6,3.3-4.4,3.3c-1.3,0-2.6-0.2-3.6-0.5L135.3,18.9
                    L135.3,18.9z"></path><path d="M152.6,6.5l-1.4-0.2V5.2h4.8v1.1l-1.4,0.2v9c0,2.6,0.2,5.1,4,5.1s4.1-2.3,4.1-5V6.5l-1.4-0.2V5.2h4.5v1.1
                    l-1.4,0.2v9.3c0,3.4-0.9,6.3-5.9,6.3s-5.8-3-5.8-6.3L152.6,6.5L152.6,6.5z"></path><path d="M167,20.8l1.2-0.2v-8.7l-1.2-0.2v-1.1h2.7l0.2,1c1.4-0.7,2.6-1.2,4.1-1.2c2.4,0,3,1.6,3,3.8v6.4l1.2,0.2v1
                    h-3v-7.5c0-1.4-0.2-2.6-1.7-2.6c-1,0-2.2,0.4-3.4,1.1v7.7l1.2,0.2v1H167L167,20.8L167,20.8z"></path><path d="M180,20.8l1.2-0.2v-8.7l-1.2-0.2v-1.1h3v9.9l1.2,0.2v1H180C180,21.8,180,20.7,180,20.8z M181.3,5.2h1.8v2.7
                    h-1.8V5.2z"></path><path d="M187.7,12h-1.7v-1.1l1.8-0.3l0.4-3h1.3v3h2.9V12h-2.9v7.2c0,1.1,0.4,1.5,1.5,1.5c0.4,0,0.8,0,1.2-0.1
                    l0.2,1.2c-0.5,0.1-1.2,0.2-1.9,0.2c-1.8,0-2.7-0.7-2.7-2.7L187.7,12L187.7,12z"></path><path d="M202.4,21.5c-1.1,0.3-2.5,0.6-3.8,0.6c-3.6,0-4.6-2.2-4.6-5.6s0.9-6.1,4.5-6.1c3.1,0,4.1,2,4.1,4.9v1.5h-6.8
                    c0.1,2.6,0.7,3.9,3.1,3.9c1,0,2.1-0.2,3.1-0.5L202.4,21.5L202.4,21.5z M200.9,15.5c0-2-0.2-3.8-2.4-3.8c-1.9,0-2.5,1.3-2.7,3.8
                    H200.9L200.9,15.5z"></path><path d="M212,21c-1.1,0.6-2.2,1.1-3.4,1.1c-3.3,0-3.8-3-3.8-5.7c0-3.3,0.8-6.1,4.2-6.1c0.9,0,2,0.2,2.9,0.8V6.5
                    l-1.3-0.2v-1h3v15.3l1.2,0.2v1h-2.7L212,21L212,21z M211.8,12.3c-1-0.4-1.9-0.6-2.6-0.6c-2,0-2.7,1.4-2.7,4.6
                    c0,2.5,0.4,4.4,2.5,4.4c0.9,0,1.9-0.3,2.8-0.9L211.8,12.3L211.8,12.3z"></path><path d="M218.9,20.1C218.9,20.1,218.9,20.1,218.9,20.1c-0.1,0.1-0.1,0.1-0.2,0.2c0,0-0.1,0-0.2,0h-0.2v-0.6h0.2
                    c0,0,0.1,0,0.1,0s0.1,0,0.1,0c0.1,0,0.1,0.1,0.2,0.1c0,0,0,0.1,0,0.2C218.9,20,218.9,20,218.9,20.1 M219.3,21.1
                    C219.3,21.1,219.3,21.1,219.3,21.1l-0.2-0.4c0,0,0-0.1-0.1-0.1s0-0.1-0.1-0.1s0,0-0.1-0.1c0,0-0.1,0-0.1,0c0.1,0,0.1,0,0.1-0.1
                    c0,0,0.1,0,0.1-0.1s0.1-0.1,0.1-0.1c0,0,0-0.1,0-0.2s0-0.1,0-0.2c0,0,0-0.1-0.1-0.1c0,0-0.1-0.1-0.1-0.1c-0.1,0-0.1,0-0.2-0.1
                    c0,0-0.1,0-0.1,0s-0.1,0-0.1,0h-0.4c0,0,0,0-0.1,0s0,0,0,0.1v1.6c0,0,0,0,0,0c0,0,0,0,0,0c0,0,0,0,0,0c0,0,0,0,0.1,0s0,0,0.1,0
                    c0,0,0,0,0,0c0,0,0,0,0,0c0,0,0,0,0,0v-0.7h0.2c0.1,0,0.1,0,0.1,0c0,0,0.1,0,0.1,0.1c0,0,0.1,0.1,0.1,0.1s0,0.1,0.1,0.1l0.2,0.4
                    c0,0,0,0,0,0c0,0,0,0,0,0c0,0,0,0,0,0c0,0,0,0,0.1,0C219.2,21.2,219.2,21.2,219.3,21.1C219.2,21.2,219.2,21.2,219.3,21.1
                    C219.2,21.2,219.2,21.2,219.3,21.1L219.3,21.1C219.3,21.2,219.3,21.2,219.3,21.1"></path><path d="M218.6,22c-0.9,0-1.7-0.7-1.7-1.7s0.7-1.7,1.7-1.7s1.7,0.8,1.7,1.7S219.6,22,218.6,22z M218.6,19
                    c-0.8,0-1.4,0.6-1.4,1.4s0.6,1.4,1.4,1.4s1.4-0.6,1.4-1.4S219.4,19,218.6,19z"></path></g><g><path d="M8.7,26.1v4.4c17.5-4.3,17.5,4.4,34.8,0v-4.4C26.1,30.6,26.1,21.7,8.7,26.1z"></path><path d="M8.7,34.8v4.3h34.8v-4.3C26.1,39.1,26.1,30.4,8.7,34.8z"></path><path d="M43.5,11.6V5.4h-4.3v3.3L26.1,0L0,17.4h8.7v4.4c17.3-4.4,17.5,4.4,34.8,0v-4.4h8.7
                    C52.2,17.4,43.5,11.6,43.5,11.6z M19.4,17.4l-2.6-1.9l-2.6,1.9l1.1-3L13,12.6h2.9l0.9-2.8l0.9,2.9h2.9l-2.3,1.8L19.4,17.4
                    L19.4,17.4z M28.7,17.4l-2.6-1.9l-2.6,1.9l1.1-3l-2.3-1.8h2.9l0.9-2.8l0.9,2.9h2.9l-2.3,1.8L28.7,17.4L28.7,17.4z M37.9,17.4
                    l-2.6-1.9l-2.6,1.9l1.1-3l-2.3-1.8h2.9l0.9-2.8l0.9,2.9h2.8l-2.3,1.8L37.9,17.4L37.9,17.4z"></path></g></g></g></svg>