<svg version="1.1" id="svg1" width="116.38667" height="55.866669" viewBox="0 0 116.38667 55.866669" xmlns="http://www.w3.org/2000/svg" fill="#c0c1c6" class="h-8 w-fit sm:h-10 fill-gray-400"><defs id="defs1"></defs><g id="g1"><g id="group-R5"><path id="path2" d="m 467.762,151.957 c 1.343,-1.078 2.726,-2.133 4.179,-3.129 11.254,-7.805 31.918,-15.027 61.997,-21.676 l 30.609,-6.707 c 17.914,-3.84 30.996,-8.25 39.25,-13.238 8.25,-5.113 12.371,-12.3398 12.371,-21.6718 0,-15.9844 -8.422,-26.918 -25.262,-32.7969 -8.875,-3.0664 -20.433,-4.5977 -34.664,-4.5977 -23.754,0 -40.531,5.8125 -50.32,17.4492 -5.352,6.3907 -8.945,16.0469 -10.774,28.961 h -56.382 c 0,-29.4102 10.656,-52.5195 31.98,-69.332 C 492.074,8.40625 521.344,0 558.563,0 c 36.441,0 64.644,8.53516 84.617,25.6055 18.355,15.6992 28.254,35.1133 29.73,58.2187 v 0 -79.58201 h 62.559 V 121.793 h 119.125 v 48.605 H 735.469 v 65.75 H 872.93 V 288.73 H 672.91 v -193.7495 0 c -1.074,22.6995 -9.367,40.3085 -25.058,52.6955 -11.887,9.379 -29.176,15.879 -48.891,20.523 -11.066,2.696 -40.609,9.543 -49.609,11.699 -9.012,2.149 -27.516,6.356 -37.559,11.7 -9.813,5.211 -13.805,13.613 -13.805,22.648 0,11.785 5.047,19.645 14.367,25.949 9.754,6.59 22.676,8.938 36.989,8.938 30.394,0 56.203,-10.965 58.004,-43.348 h 56.765 c -1.039,30.043 -12.199,52.965 -33.488,68.758 -21.297,15.789 -47.02,23.684 -77.176,23.684 -36.109,0 -63.484,-8.375 -82.129,-25.122 -11.457,-10.3 -19.379,-22.222 -23.793,-35.757 0,0 -0.765,-2.438 -1.367,-4.703 -0.605,-2.262 -1.023,-4.305 -1.023,-4.305 v 0 c -6.91,-32.602 -27.907,-54.746 -63.004,-54.746 -56.195,0 -77.305,47.812 -77.305,95.234 0,49.793 21.11,97.594 77.305,97.594 31.062,0 58.164,-21.504 62.148,-49.789 h 60.567 c -7.578,65.734 -60.172,102.394 -122.715,102.394 -83.981,0 -134.938,-59.804 -139.485,-138.589 V 412.25 H 180.086 V 235.352 c 0,-42.231 -14.34,-61.758 -58.965,-61.758 -50.6054,0 -58.5702,30.679 -58.5702,61.758 V 412.25 H 0 V 235.352 C 0,158.059 44.6133,121 121.121,121 c 76.109,0 121.527,37.445 121.527,114.352 v 22.175 C 247.195,180.801 298.152,121 382.133,121 c 34.508,0 63.93,11.129 85.629,30.957 v 0" transform="matrix(0.13333333,0,0,-0.13333333,0,55.866667)"></path></g></g></svg>