<svg viewBox="0 0 500 150" fill="none" xmlns="http://www.w3.org/2000/svg" class="h-16 sm:h-16 fill-gray-200"><path d="M0 0 C3.3 0 6.6 0 10 0 C10.33 5.94 10.66 11.88 11 18 C11.66 17.67 12.32 17.34 13 17 C14.93359586 16.85148156 16.87342097 16.77869167 18.8125 16.75 C19.85019531 16.72421875 20.88789063 16.6984375 21.95703125 16.671875 C26.63462508 17.17626252 29.15112581 19.05680646 32.25 22.5 C34.92334057 26.31905796 35.12780926 29.17861592 35.1328125 33.7265625 C35.13410156 34.8403125 35.13539063 35.9540625 35.13671875 37.1015625 C35.13285156 38.26429687 35.12898438 39.42703125 35.125 40.625 C35.13080078 42.38070312 35.13080078 42.38070312 35.13671875 44.171875 C35.13542969 45.28304687 35.13414062 46.39421875 35.1328125 47.5390625 C35.13168457 48.56209473 35.13055664 49.58512695 35.12939453 50.63916016 C35 53 35 53 34 54 C32.48071962 54.07179964 30.95832518 54.08392007 29.4375 54.0625 C28.61121094 54.05347656 27.78492188 54.04445312 26.93359375 54.03515625 C26.29550781 54.02355469 25.65742188 54.01195312 25 54 C24.98541748 53.25838623 24.97083496 52.51677246 24.95581055 51.75268555 C24.88140543 48.39709369 24.78471994 45.04250506 24.6875 41.6875 C24.66494141 40.52025391 24.64238281 39.35300781 24.61914062 38.15039062 C24.58369141 37.03212891 24.54824219 35.91386719 24.51171875 34.76171875 C24.48553467 33.73006592 24.45935059 32.69841309 24.43237305 31.63549805 C24.20194029 28.98407023 24.20194029 28.98407023 22.65161133 27.16333008 C20.05802531 25.33651007 18.08178052 25.62263912 15 26 C12.75693991 27.09883502 12.75693991 27.09883502 11 29 C10.37441939 31.5835587 10.37441939 31.5835587 10.42578125 34.5078125 C10.39806641 35.57644531 10.37035156 36.64507812 10.34179688 37.74609375 C10.33212891 38.86113281 10.32246094 39.97617188 10.3125 41.125 C10.27061519 43.33601044 10.22523808 45.54695847 10.17578125 47.7578125 C10.16458252 48.7389502 10.15338379 49.72008789 10.1418457 50.73095703 C10 53 10 53 9 54 C7.1875 54.1328125 7.1875 54.1328125 5 54.125 C4.278125 54.12757812 3.55625 54.13015625 2.8125 54.1328125 C1 54 1 54 0 53 C-0.09346915 51.34261557 -0.11744977 49.68125356 -0.11352539 48.02124023 C-0.11344986 46.96021591 -0.11337433 45.89919159 -0.11329651 44.80601501 C-0.10813522 43.651866 -0.10297394 42.49771698 -0.09765625 41.30859375 C-0.0962413 40.13361832 -0.09482635 38.95864288 -0.09336853 37.74806213 C-0.08774992 33.97784936 -0.07519426 30.20769496 -0.0625 26.4375 C-0.0574874 23.88867273 -0.05292408 21.33984453 -0.04882812 18.79101562 C-0.03777444 12.5273211 -0.02049734 6.26367046 0 0 Z " transform="translate(144,48)"></path><path d="M0 0 C1.15371094 -0.01417969 2.30742187 -0.02835937 3.49609375 -0.04296875 C6.5625 0.1875 6.5625 0.1875 9.5625 2.1875 C9.5625 1.5275 9.5625 0.8675 9.5625 0.1875 C12.8625 0.1875 16.1625 0.1875 19.5625 0.1875 C19.5625 12.3975 19.5625 24.6075 19.5625 37.1875 C10.5625 37.1875 10.5625 37.1875 8.5625 36.1875 C7.5725 36.6825 7.5725 36.6825 6.5625 37.1875 C0.70774289 37.68078755 -4.62734281 38.04494288 -10 35.5 C-10.804375 34.736875 -11.60875 33.97375 -12.4375 33.1875 C-13.18 32.506875 -13.9225 31.82625 -14.6875 31.125 C-18.2482832 25.14797106 -19.15408736 18.63429525 -17.5 11.875 C-14.57114139 3.58976034 -8.41601777 0.04691203 0 0 Z M-5.3125 10.1875 C-7.92998183 13.88276847 -8.76335532 16.67836686 -8.4375 21.1875 C-6.9055636 25.52563936 -6.9055636 25.52563936 -3.4375 28.1875 C0.78762568 28.68505341 4.35575643 28.91154614 8.0625 26.6875 C10.10224609 23.28792318 10.76569879 20.10095811 10.5625 16.1875 C9.05967203 12.12986447 8.18091259 10.59977506 4.5625 8.1875 C0.26075813 7.6298668 -1.71330581 7.68371273 -5.3125 10.1875 Z " transform="translate(275.4375,64.8125)"></path><path d="M0 0 C-0.46409132 14.17798977 -3.10415037 26.35234554 -13 37 C-15.83577645 39.38263692 -18.73222071 41.26583554 -22 43 C-22.63164063 43.33773437 -23.26328125 43.67546875 -23.9140625 44.0234375 C-27.75480298 45.86766971 -30.80296308 46.10565967 -35 46 C-34.78258595 34.27940604 -32.69791109 20.97993864 -24.859375 11.70703125 C-18.17228239 5.56783068 -9.2594012 0 0 0 Z " transform="translate(70,55)"></path><path d="M0 0 C0.94746094 -0.01417969 1.89492187 -0.02835937 2.87109375 -0.04296875 C5.60751644 0.19135482 7.22678123 0.79048617 9.5625 2.1875 C9.8925 1.5275 10.2225 0.8675 10.5625 0.1875 C13.5325 0.1875 16.5025 0.1875 19.5625 0.1875 C19.5625 12.3975 19.5625 24.6075 19.5625 37.1875 C16.5925 37.1875 13.6225 37.1875 10.5625 37.1875 C10.2325 36.5275 9.9025 35.8675 9.5625 35.1875 C8.5725 35.8475 7.5825 36.5075 6.5625 37.1875 C0.75679862 37.85410924 -4.64186211 38.0065629 -10 35.5625 C-15.10439229 30.58898956 -17.56856486 26.0339634 -17.6875 18.9375 C-17.61280483 13.27560617 -17.08240926 8.96248677 -13.0078125 4.6875 C-8.75287276 0.96178162 -5.52476178 0.03748142 0 0 Z M-7.4375 12.1875 C-9.03203633 15.37657265 -8.82311702 18.71694682 -8.4375 22.1875 C-6.70782287 25.93297604 -6.70782287 25.93297604 -3.4375 28.1875 C1.2665151 28.8344176 4.55351607 28.82583677 8.625 26.25 C11.22134755 22.14609581 11.51509938 18.92475096 10.5625 14.1875 C8.76856332 11.31720131 7.57986724 9.69618362 4.5625 8.1875 C-0.93773842 7.66860958 -3.50554501 8.25554501 -7.4375 12.1875 Z " transform="translate(90.4375,64.8125)"></path><path d="M0 0 C5.21128246 3.29133629 7.17273734 7.30052893 8.6015625 13.0390625 C8.93359375 15.234375 8.93359375 15.234375 8.93359375 21.234375 C-3.44140625 21.729375 -3.44140625 21.729375 -16.06640625 22.234375 C-11.82012799 27.50388762 -11.82012799 27.50388762 -7.56640625 27.671875 C-4.3335408 27.26776682 -2.01576184 26.54519971 0.93359375 25.234375 C1.92359375 25.234375 2.91359375 25.234375 3.93359375 25.234375 C5.94227882 27.24306007 6.90891082 28.41983846 6.99609375 31.296875 C5.33486394 34.32617641 3.08017254 34.93383727 -0.06640625 36.234375 C-3.72265625 36.66796875 -3.72265625 36.66796875 -7.56640625 36.671875 C-9.4690625 36.70087891 -9.4690625 36.70087891 -11.41015625 36.73046875 C-16.68834038 36.01430488 -19.71359976 33.6623374 -23.31640625 29.859375 C-26.72591082 24.74511815 -28.09904435 19.34415041 -27.06640625 13.234375 C-25.31606267 8.04585654 -23.2047183 4.23039804 -19.06640625 0.609375 C-13.48280026 -1.96767392 -5.73575275 -2.12515603 0 0 Z M-14.85546875 8.5625 C-16.35970396 10.29525694 -16.35970396 10.29525694 -16.06640625 13.234375 C-11.11640625 13.234375 -6.16640625 13.234375 -1.06640625 13.234375 C-2.51929611 8.6501787 -2.51929611 8.6501787 -4.06640625 7.234375 C-6.09911187 6.99616579 -6.09911187 6.99616579 -8.44140625 6.984375 C-9.23289063 6.95859375 -10.024375 6.9328125 -10.83984375 6.90625 C-13.1326144 7.0649315 -13.1326144 7.0649315 -14.85546875 8.5625 Z " transform="translate(208.06640625,65.765625)"></path><path d="M0 0 C3.3 0 6.6 0 10 0 C10 0.66 10 1.32 10 2 C10.99 1.34 11.98 0.68 13 0 C18.1671837 -0.72619879 23.64601891 -1.22732238 28.375 1.23828125 C31.30427711 3.69765349 32.77642923 5.32928768 34 9 C34.0833804 11.13794525 34.10733747 13.27842009 34.09765625 15.41796875 C34.09443359 16.67158203 34.09121094 17.92519531 34.08789062 19.21679688 C34.07532227 21.18229492 34.07532227 21.18229492 34.0625 23.1875 C34.05748317 24.52278481 34.05292059 25.85807141 34.04882812 27.19335938 C34.03702695 30.46228473 34.02056297 33.73111991 34 37 C31.03 37 28.06 37 25 37 C24.98541748 36.25838623 24.97083496 35.51677246 24.95581055 34.75268555 C24.88140543 31.39709369 24.78471994 28.04250506 24.6875 24.6875 C24.66494141 23.52025391 24.64238281 22.35300781 24.61914062 21.15039062 C24.58369141 20.03212891 24.54824219 18.91386719 24.51171875 17.76171875 C24.48553467 16.73006592 24.45935059 15.69841309 24.43237305 14.63549805 C24.20238962 11.9843201 24.20238962 11.9843201 22.65161133 10.16723633 C20.0279271 8.31301101 18.11599281 8.55485817 15 9 C12.31961137 11.08474671 11.14446975 12.29677605 10.45410156 15.65722656 C10.4331543 16.64174805 10.41220703 17.62626953 10.390625 18.640625 C10.35839844 19.71054688 10.32617188 20.78046875 10.29296875 21.8828125 C10.27169922 23.54957031 10.27169922 23.54957031 10.25 25.25 C10.22035156 26.37664062 10.19070312 27.50328125 10.16015625 28.6640625 C10.08951088 31.44278021 10.03678723 34.22066148 10 37 C8.52093108 37.02689216 7.04172517 37.04634621 5.5625 37.0625 C4.73878906 37.07410156 3.91507813 37.08570313 3.06640625 37.09765625 C1 37 1 37 0 36 C-0.08855161 33.3337397 -0.11524673 30.69352886 -0.09765625 28.02734375 C-0.0962413 27.22970108 -0.09482635 26.43205841 -0.09336853 25.61024475 C-0.08775316 23.05262565 -0.07519812 20.49509282 -0.0625 17.9375 C-0.05748698 16.20768355 -0.05292373 14.47786574 -0.04882812 12.74804688 C-0.03777875 8.49866447 -0.02050386 4.24934688 0 0 Z " transform="translate(220,65)"></path><path d="M0 0 C3.3 0 6.6 0 10 0 C10 3.3 10 6.6 10 10 C14.29 10 18.58 10 23 10 C23 12.64 23 15.28 23 18 C18.71 18 14.42 18 10 18 C10.33 24.6 10.66 31.2 11 38 C16.94 37.505 16.94 37.505 23 37 C25 41 25 41 25 45 C19.1450123 47.71994764 13.34557042 47.79828742 7 47 C3.01301194 44.26383172 1.38685142 41.55420203 0 37 C-0.23701885 33.72459725 -0.18862724 30.46919752 -0.125 27.1875 C-0.11597656 26.30384766 -0.10695313 25.42019531 -0.09765625 24.50976562 C-0.07419637 22.33972641 -0.03832865 20.16982753 0 18 C-2.31 18 -4.62 18 -7 18 C-7 15.36 -7 12.72 -7 10 C-4.69 10 -2.38 10 0 10 C0 6.7 0 3.4 0 0 Z " transform="translate(118,55)"></path><path d="M0 0 C0.639375 0.474375 1.27875 0.94875 1.9375 1.4375 C2.2675 0.4475 2.5975 -0.5425 2.9375 -1.5625 C4.9175 -1.5625 6.8975 -1.5625 8.9375 -1.5625 C8.9375 10.3175 8.9375 22.1975 8.9375 34.4375 C6.9575 34.4375 4.9775 34.4375 2.9375 34.4375 C2.6075 33.1175 2.2775 31.7975 1.9375 30.4375 C1.174375 31.0975 0.41125 31.7575 -0.375 32.4375 C-4.91955956 35.45284758 -9.81839468 35.18448012 -15.0625 34.4375 C-20.42164787 32.68395529 -23.36791934 29.30847274 -26.0625 24.4375 C-27.94292493 18.7962252 -27.842965 12.65566369 -25.875 7.0625 C-22.97424188 2.86140203 -20.57998187 0.07951156 -15.8125 -1.9375 C-10.06811022 -2.8948983 -5.2282881 -2.66749393 0 0 Z M-20.0625 8.4375 C-21.0771239 10.2439655 -21.0771239 10.2439655 -21.0625 12.4375 C-21.145 13.736875 -21.2275 15.03625 -21.3125 16.375 C-21.25607079 20.16986428 -20.47971949 22.41597564 -18.0625 25.4375 C-14.27347651 28.80825466 -11.47764254 29.00177283 -6.54296875 28.86328125 C-2.48184018 28.16617414 -0.80691974 26.46339869 1.9375 23.4375 C3.29359289 19.36922134 3.4673986 15.69120654 2.9375 11.4375 C0.84858539 7.33427488 -0.82780121 5.15930061 -5.0625 3.4375 C-11.73444474 2.28507318 -15.53110372 3.45296409 -20.0625 8.4375 Z " transform="translate(401.0625,67.5625)"></path><path d="M0 0 C1.98 0 3.96 0 6 0 C6.33 6.6 6.66 13.2 7 20 C9.31 19.01 11.62 18.02 14 17 C19.35712039 16.60571594 24.58315757 17.95027546 29 21 C31.61975464 25.30990638 32.36457005 28.48009636 32.29296875 33.4921875 C32.2784668 35.29042969 32.2784668 35.29042969 32.26367188 37.125 C32.23853516 38.3625 32.21339844 39.6 32.1875 40.875 C32.16719727 42.76605469 32.16719727 42.76605469 32.14648438 44.6953125 C32.11123435 47.79731454 32.06195504 50.89843534 32 54 C30.02 54 28.04 54 26 54 C25.98018066 53.26362305 25.96036133 52.52724609 25.93994141 51.76855469 C25.84462172 48.42867944 25.73497004 45.08942361 25.625 41.75 C25.5940625 40.59113281 25.563125 39.43226562 25.53125 38.23828125 C25.49257813 37.12324219 25.45390625 36.00820312 25.4140625 34.859375 C25.3826416 33.83295898 25.3512207 32.80654297 25.31884766 31.74902344 C24.99996849 28.99972833 24.49715185 27.31057553 23 25 C19.54968739 23.27484369 15.77283696 23.50322076 12 24 C8.96784325 26.19831364 8.18345602 27.44963194 7 31 C6.85164052 32.77166975 6.75229982 34.54767612 6.68359375 36.32421875 C6.64169922 37.35224609 6.59980469 38.38027344 6.55664062 39.43945312 C6.51732422 40.51130859 6.47800781 41.58316406 6.4375 42.6875 C6.39431641 43.77095703 6.35113281 44.85441406 6.30664062 45.97070312 C6.20053162 48.64700791 6.09847639 51.32340526 6 54 C4.02 54 2.04 54 0 54 C0 36.18 0 18.36 0 0 Z " transform="translate(301,48)"></path><path d="M0 0 C8.9009521 2.52886863 16.04225841 6.19831063 21.375 14.015625 C25.86386847 22.39924699 26.2765756 30.68393021 26.125 40 C26.11597656 41.06089844 26.10695313 42.12179688 26.09765625 43.21484375 C26.07427524 45.81013638 26.04150556 48.40494465 26 51 C24.0625 51.5625 24.0625 51.5625 22 52 C21 51 21 51 20.90234375 47.40234375 C20.9090178 45.91403133 20.92097817 44.42573568 20.9375 42.9375 C20.94201172 42.17888672 20.94652344 41.42027344 20.95117188 40.63867188 C20.9629932 38.75908129 20.98092922 36.87953101 21 35 C19.95199219 34.75378906 18.90398438 34.50757813 17.82421875 34.25390625 C11.27852496 32.37076303 6.44924365 27.31368258 2.47265625 21.93359375 C-1.1435112 15.15167116 -0.35356004 7.45422415 0 0 Z " transform="translate(8,50)"></path><path d="M0 0 C6.76784206 5.82349201 6.7398231 8.835731 7.6875 18.3125 C-1.5525 18.6425 -10.7925 18.9725 -20.3125 19.3125 C-17.8922509 24.94356761 -17.8922509 24.94356761 -15.3125 27.3125 C-9.12115258 28.98958596 -4.89960743 28.21779586 0.6875 25.3125 C1.6775 24.9825 2.6675 24.6525 3.6875 24.3125 C3.6875 24.9725 3.6875 25.6325 3.6875 26.3125 C4.3475 26.3125 5.0075 26.3125 5.6875 26.3125 C5.31668186 28.69776264 5.08315141 29.96974317 3.2265625 31.578125 C-2.59802149 34.57362534 -7.8240012 35.11858651 -14.3125 34.3125 C-19.51223734 32.57925422 -22.17433594 29.75823242 -25.3125 25.3125 C-27.88317839 19.55907694 -28.08973748 14.17560851 -26.1875 8.1875 C-24.0125367 2.91857482 -20.60820501 0.43484467 -15.5 -2.0625 C-9.81804195 -3.17660942 -5.1663409 -2.63190951 0 0 Z M-17.3125 5.3125 C-19.528952 8.26776934 -20.3125 9.59996836 -20.3125 13.3125 C-13.0525 13.3125 -5.7925 13.3125 1.6875 13.3125 C-0.62982569 6.77131739 -0.62982569 6.77131739 -5.3125 3.3125 C-10.29210728 1.79696735 -12.99812055 2.43624703 -17.3125 5.3125 Z " transform="translate(364.3125,67.6875)"></path><path d="M0 0 C1.98 0 3.96 0 6 0 C6.33 6.6 6.66 13.2 7 20 C10.96 18.515 10.96 18.515 15 17 C20.93683458 16.49765246 25.40762797 18.19169149 30 22 C32.42204038 25.63306058 32.23302891 27.31819023 32.1953125 31.63671875 C32.18886719 32.93544922 32.18242187 34.23417969 32.17578125 35.57226562 C32.1590706 36.94401307 32.14214071 38.31575786 32.125 39.6875 C32.11496674 41.07095718 32.10584149 42.45442127 32.09765625 43.83789062 C32.07404967 47.22543452 32.04112037 50.61263072 32 54 C30.35 54 28.7 54 27 54 C26.98541748 53.29915283 26.97083496 52.59830566 26.95581055 51.8762207 C26.88114513 48.68776991 26.78454525 45.50034487 26.6875 42.3125 C26.66494141 41.20970703 26.64238281 40.10691406 26.61914062 38.97070312 C26.58369141 37.90400391 26.54824219 36.83730469 26.51171875 35.73828125 C26.48553467 34.75899658 26.45935059 33.77971191 26.43237305 32.77075195 C25.93073737 29.55614818 24.89669973 27.62398598 23 25 C19.22888965 23.11444482 14.599781 23.5369055 10.625 24.6875 C7.76732398 26.99562294 7.10390621 30.12698101 6.68115234 33.67895508 C6.634021 35.08504028 6.634021 35.08504028 6.5859375 36.51953125 C6.54726563 37.54111328 6.50859375 38.56269531 6.46875 39.61523438 C6.4378125 40.67033203 6.406875 41.72542969 6.375 42.8125 C6.33632813 43.88693359 6.29765625 44.96136719 6.2578125 46.06835938 C6.16381387 48.71207088 6.07815427 51.3557805 6 54 C4.02 54 2.04 54 0 54 C0 36.18 0 18.36 0 0 Z " transform="translate(457,48)"></path><path d="M0 0 C1.98 0 3.96 0 6 0 C6 3.63 6 7.26 6 11 C11.28 11 16.56 11 22 11 C22 12.65 22 14.3 22 16 C16.72 16 11.44 16 6 16 C6.11395555 19.25073211 6.24070655 22.50009857 6.375 25.75 C6.4059375 26.67039062 6.436875 27.59078125 6.46875 28.5390625 C6.50742187 29.42851563 6.54609375 30.31796875 6.5859375 31.234375 C6.6173584 32.05131836 6.6487793 32.86826172 6.68115234 33.70996094 C7.02343693 36.16832958 7.7739277 37.85759999 9 40 C9.60328125 40 10.2065625 40 10.828125 40 C14.55208333 40 18.27604167 40 22 40 C22.33 41.32 22.66 42.64 23 44 C18.80968354 47.46784811 14.81317105 47.50910556 9.59765625 47.34765625 C5.96993821 46.86214211 4.30773108 45.82883165 2 43 C-0.50161234 37.45256492 -0.22991936 32.08119109 -0.125 26.125 C-0.11597656 25.15046875 -0.10695313 24.1759375 -0.09765625 23.171875 C-0.07421623 20.78099272 -0.04140442 18.39062739 0 16 C-2.64 16 -5.28 16 -8 16 C-8 14.35 -8 12.7 -8 11 C-5.36 11 -2.72 11 0 11 C0 7.37 0 3.74 0 0 Z " transform="translate(432,55)"></path><path d="M0 0 C1.95703125 0.0859375 1.95703125 0.0859375 4 1 C7.90457485 6.49376838 10.61940138 13.20433178 9.7421875 19.99609375 C8.773664 24.6538113 7.12081394 28.32845419 4 32 C2.68 32 1.36 32 0 32 C-3.71112458 25.56373227 -6.63168246 19.58018956 -6 12 C-4.74521554 7.48784579 -3.34584929 3.34584929 0 0 Z " transform="translate(31,34)"></path><path d="M0 0 C1.65 0 3.3 0 5 0 C5 17.82 5 35.64 5 54 C3.35 54 1.7 54 0 54 C-1.65408456 52.34591544 -1.12742355 50.40446108 -1.12939453 48.12890625 C-1.13254669 47.09113037 -1.13569885 46.05335449 -1.13894653 44.98413086 C-1.1369223 43.85499268 -1.13489807 42.72585449 -1.1328125 41.5625 C-1.13424759 39.83688843 -1.13424759 39.83688843 -1.13571167 38.07641602 C-1.13639369 35.63850856 -1.1345379 33.2005993 -1.13037109 30.76269531 C-1.12502317 27.01623482 -1.13031539 23.26989423 -1.13671875 19.5234375 C-1.13605797 17.16145807 -1.13477682 14.79947871 -1.1328125 12.4375 C-1.13483673 11.30836182 -1.13686096 10.17922363 -1.13894653 9.01586914 C-1.13579437 7.97809326 -1.13264221 6.94031738 -1.12939453 5.87109375 C-1.12859894 4.95255615 -1.12780334 4.03401855 -1.12698364 3.08764648 C-1 1 -1 1 0 0 Z " transform="translate(417,48)"></path><path d="M0 0 C3.0482673 2.46455654 4.83325083 4.74987624 7 8 C6.67 8.66 6.34 9.32 6 10 C5.34 10 4.68 10 4 10 C3.278125 9.175 2.55625 8.35 1.8125 7.5 C-0.81207395 4.70564374 -0.81207395 4.70564374 -4.4375 4.5 C-8.22294662 5.03129075 -10.69625181 6.12287035 -14 8 C-14.99 8.33 -15.98 8.66 -17 9 C-17.66 11.31 -18.32 13.62 -19 16 C-9.76 15.67 -0.52 15.34 9 15 C9 16.32 9 17.64 9 19 C-0.24 19 -9.48 19 -19 19 C-19 20.32 -19 21.64 -19 23 C-19.99 23 -20.98 23 -22 23 C-22.40336134 10.60784314 -22.40336134 10.60784314 -20 5 C-14.41028144 -0.74498852 -7.59686975 -2.20056928 0 0 Z " transform="translate(361,66)"></path><path d="M0 0 C5.90101834 0.07411012 11.05133118 0.75962789 15.80078125 4.53125 C18.01260304 7.95972276 18.03405803 10.80391153 17.99609375 14.828125 C17.98964844 16.03339844 17.98320312 17.23867187 17.9765625 18.48046875 C17.95980469 19.73472656 17.94304687 20.98898438 17.92578125 22.28125 C17.91675781 23.55097656 17.90773438 24.82070312 17.8984375 26.12890625 C17.8748713 29.26321093 17.84196957 32.39713541 17.80078125 35.53125 C15.82078125 35.53125 13.84078125 35.53125 11.80078125 35.53125 C11.78619873 34.80534668 11.77161621 34.07944336 11.7565918 33.33154297 C11.68183266 30.02259268 11.58526335 26.71462048 11.48828125 23.40625 C11.46572266 22.26414062 11.44316406 21.12203125 11.41992188 19.9453125 C11.31316304 11.74494086 11.31316304 11.74494086 7.80078125 4.53125 C5.70029541 3.56516788 5.70029541 3.56516788 3.36328125 3.59375 C2.60144531 3.54347656 1.83960938 3.49320312 1.0546875 3.44140625 C-1.17085357 3.53011933 -3.0676445 3.90488764 -5.19921875 4.53125 C-2.84204043 0.68653197 -2.84204043 0.68653197 0 0 Z " transform="translate(315.19921875,66.46875)"></path><path d="M0 0 C-0.03480469 0.95261719 -0.06960938 1.90523438 -0.10546875 2.88671875 C-0.14607422 4.76810547 -0.14607422 4.76810547 -0.1875 6.6875 C-0.23970703 8.54955078 -0.23970703 8.54955078 -0.29296875 10.44921875 C0.02027812 14.2457708 0.69242347 16.01467371 3 19 C7.86798838 22.24532559 13.48281763 21.40274918 19.125 20.5 C19.74375 20.335 20.3625 20.17 21 20 C20.6875 21.875 20.6875 21.875 20 24 C15.12511156 27.24992562 9.69958056 26.58672153 4 26 C1.28412705 24.9718481 0.11871113 24.05817653 -2 22 C-2 21.34 -2 20.68 -2 20 C-2.99 20 -3.98 20 -5 20 C-5.27720876 17.60455476 -5.52225728 15.21272966 -5.75 12.8125 C-5.87181641 11.80219727 -5.87181641 11.80219727 -5.99609375 10.77148438 C-6.32383905 7.03882952 -6.14147527 5.22737097 -4.140625 2.01171875 C-2 0 -2 0 0 0 Z " transform="translate(381,74)"></path><path d="M0 0 C0.99 0 1.98 0 3 0 C3 3.63 3 7.26 3 11 C7.95 11 12.9 11 18 11 C18 11.99 18 12.98 18 14 C13.05 14 8.1 14 3 14 C3.33 22.25 3.66 30.5 4 39 C2.68 38.67 1.36 38.34 0 38 C0 30.08 0 22.16 0 14 C-2.64 14 -5.28 14 -8 14 C-8 13.01 -8 12.02 -8 11 C-5.36 11 -2.72 11 0 11 C0 7.37 0 3.74 0 0 Z " transform="translate(434,56)"></path><path d="M0 0 C3.3 0 6.6 0 10 0 C10.33 5.94 10.66 11.88 11 18 C12.65 17.67 14.3 17.34 16 17 C11.25 21 11.25 21 9 21 C9 14.4 9 7.8 9 1 C6.69 1 4.38 1 2 1 C2 17.83 2 34.66 2 52 C4.31 52 6.62 52 9 52 C9 44.41 9 36.82 9 29 C9.33 29 9.66 29 10 29 C10.02886984 32.97915159 10.04675406 36.95827653 10.0625 40.9375 C10.07087891 42.07380859 10.07925781 43.21011719 10.08789062 44.38085938 C10.09111328 45.46044922 10.09433594 46.54003906 10.09765625 47.65234375 C10.10289307 48.65257568 10.10812988 49.65280762 10.11352539 50.68334961 C10 53 10 53 9 54 C7.1875 54.1328125 7.1875 54.1328125 5 54.125 C4.278125 54.12757812 3.55625 54.13015625 2.8125 54.1328125 C1 54 1 54 0 53 C-0.09346915 51.34261557 -0.11744977 49.68125356 -0.11352539 48.02124023 C-0.11344986 46.96021591 -0.11337433 45.89919159 -0.11329651 44.80601501 C-0.10813522 43.651866 -0.10297394 42.49771698 -0.09765625 41.30859375 C-0.0962413 40.13361832 -0.09482635 38.95864288 -0.09336853 37.74806213 C-0.08774992 33.97784936 -0.07519426 30.20769496 -0.0625 26.4375 C-0.0574874 23.88867273 -0.05292408 21.33984453 -0.04882812 18.79101562 C-0.03777444 12.5273211 -0.02049734 6.26367046 0 0 Z " transform="translate(144,48)"></path><path d="M0 0 C3.3 0 6.6 0 10 0 C10 0.66 10 1.32 10 2 C10.66 2.33 11.32 2.66 12 3 C11.01 3.66 10.02 4.32 9 5 C8.67 4.01 8.34 3.02 8 2 C5.03 1.505 5.03 1.505 2 1 C2 12.22 2 23.44 2 35 C3.98 35 5.96 35 8 35 C7.98428955 34.42556152 7.9685791 33.85112305 7.95239258 33.25927734 C7.88964487 30.63128691 7.85088494 28.00345463 7.8125 25.375 C7.77479492 24.01955078 7.77479492 24.01955078 7.73632812 22.63671875 C7.67778476 17.28975851 8.05082286 13.65985469 11 9 C11.66 9.33 12.32 9.66 13 10 C12.01 11.485 12.01 11.485 11 13 C10.63250611 15.61289494 10.63250611 15.61289494 10.5859375 18.54296875 C10.52792969 20.15268555 10.52792969 20.15268555 10.46875 21.79492188 C10.42234375 23.47424805 10.42234375 23.47424805 10.375 25.1875 C10.31699219 26.88422852 10.31699219 26.88422852 10.2578125 28.61523438 C10.16347467 31.4099925 10.07788348 34.20474278 10 37 C8.52093108 37.02689216 7.04172517 37.04634621 5.5625 37.0625 C4.73878906 37.07410156 3.91507813 37.08570313 3.06640625 37.09765625 C1 37 1 37 0 36 C-0.08855161 33.3337397 -0.11524673 30.69352886 -0.09765625 28.02734375 C-0.0962413 27.22970108 -0.09482635 26.43205841 -0.09336853 25.61024475 C-0.08775316 23.05262565 -0.07519812 20.49509282 -0.0625 17.9375 C-0.05748698 16.20768355 -0.05292373 14.47786574 -0.04882812 12.74804688 C-0.03777875 8.49866447 -0.02050386 4.24934688 0 0 Z " transform="translate(220,65)"></path><path d="M0 0 C4.27650657 1.52732377 5.94669176 4.03499099 8 8 C8.33 11.3 8.66 14.6 9 18 C-0.24 18.33 -9.48 18.66 -19 19 C-19.33 19.99 -19.66 20.98 -20 22 C-20.33 20.35 -20.66 18.7 -21 17 C-11.76 17 -2.52 17 7 17 C7 15.68 7 14.36 7 13 C6.01 13.495 6.01 13.495 5 14 C3.0406396 14.08510205 1.07837206 14.10717656 -0.8828125 14.09765625 C-2.04941406 14.09443359 -3.21601563 14.09121094 -4.41796875 14.08789062 C-5.64128906 14.07951172 -6.86460937 14.07113281 -8.125 14.0625 C-9.35605469 14.05798828 -10.58710938 14.05347656 -11.85546875 14.04882812 C-14.90369392 14.0370133 -17.95182314 14.02054028 -21 14 C-20.25 9.25 -20.25 9.25 -18 7 C-18.33 8.98 -18.66 10.96 -19 13 C-8.605 12.505 -8.605 12.505 2 12 C-1.15586412 5.64631811 -1.15586412 5.64631811 -7 3 C-5.3125 2.25 -5.3125 2.25 -3 2 C-0.25 3.8125 -0.25 3.8125 2 6 C2 6.66 2 7.32 2 8 C2.66 8 3.32 8 4 8 C3.40072174 4.64404172 2.15377564 2.62198774 0 0 Z " transform="translate(363,68)"></path><path d="M0 0 C6.6984824 -0.47657187 10.78236388 -0.41492287 16 4 C16.33 4.33 16.66 4.66 17 5 C17.33 3.35 17.66 1.7 18 0 C18.99 0 19.98 0 21 0 C21 10.89 21 21.78 21 33 C20.34 33 19.68 33 19 33 C19.02320313 32.16597656 19.04640625 31.33195312 19.0703125 30.47265625 C19.17969485 23.6518856 18.84714864 17.56614151 17 11 C16.66394072 9.66735112 16.32983631 8.33420272 16 7 C14.68 6.67 13.36 6.34 12 6 C12 5.34 12 4.68 12 4 C11.30132812 3.93941406 10.60265625 3.87882812 9.8828125 3.81640625 C8.97273438 3.73261719 8.06265625 3.64882812 7.125 3.5625 C6.22007812 3.48128906 5.31515625 3.40007812 4.3828125 3.31640625 C2 3 2 3 0 2 C0 1.34 0 0.68 0 0 Z " transform="translate(387,67)"></path><path d="M0 0 C1.98 0 3.96 0 6 0 C4.68 0.33 3.36 0.66 2 1 C2 17.83 2 34.66 2 52 C3.32 52 4.64 52 6 52 C6 52.66 6 53.32 6 54 C4.02 54 2.04 54 0 54 C0 36.18 0 18.36 0 0 Z " transform="translate(457,48)"></path><path d="M0 0 C0.66 0 1.32 0 2 0 C6.47015573 7.96853848 7.21449246 17.14203017 5 26 C4.67 26 4.34 26 4 26 C4 24.35 4 22.7 4 21 C3.34 21 2.68 21 2 21 C1.9071875 21.8971875 1.9071875 21.8971875 1.8125 22.8125 C1 25 1 25 -0.875 26.75 C-6.10420154 28.84168061 -11.82916872 29.09824529 -17.19921875 27.23828125 C-20.57214902 25.44928469 -22.81580736 23.68415489 -24 20 C-22 20 -22 20 -20 21.9375 C-19.34 22.618125 -18.68 23.29875 -18 24 C-15.16612485 25.41693757 -12.71970627 25.1699013 -9.5625 25.1875 C-8.40878906 25.20167969 -7.25507813 25.21585938 -6.06640625 25.23046875 C-2.82719832 25.23925088 -2.82719832 25.23925088 0 23 C0 22.34 0 21.68 0 21 C-0.66 20.67 -1.32 20.34 -2 20 C-1.525625 19.566875 -1.05125 19.13375 -0.5625 18.6875 C2.55178422 15.32407304 2.20315284 11.54403794 2.16796875 7.23046875 C1.9647636 4.53209334 1.23820093 2.39901431 0 0 Z " transform="translate(401,74)"></path><path d="M0 0 C2.3125 0.4375 2.3125 0.4375 4.3125 2.4375 C5.735625 2.4065625 5.735625 2.4065625 7.1875 2.375 C10.76974469 2.44664489 11.64009914 3.22206812 14.3125 5.4375 C13.51585937 5.39109375 12.71921875 5.3446875 11.8984375 5.296875 C5.34054041 5.07349164 1.30431542 5.00033074 -3.6875 9.4375 C-3.6875 8.7775 -3.6875 8.1175 -3.6875 7.4375 C-6.1331759 9.08833123 -7.26331825 9.90895275 -8.6875 12.4375 C-9.13644828 16.80022089 -8.97547383 21.06669727 -8.6875 25.4375 C-11.669775 20.9640875 -11.16912979 16.68274943 -10.6875 11.4375 C-8.87520412 6.28676433 -5.74560554 0.93533113 0 0 Z " transform="translate(384.6875,66.5625)"></path><path d="M0 0 C0.66 0.33 1.32 0.66 2 1 C1.57847656 1.48210937 1.15695313 1.96421875 0.72265625 2.4609375 C0.17480469 3.09257813 -0.37304688 3.72421875 -0.9375 4.375 C-1.48277344 5.00148438 -2.02804688 5.62796875 -2.58984375 6.2734375 C-6.27978013 10.79130975 -5.40016849 16.44129592 -5 22 C-3.37837809 26.77951721 -1.16394853 29.18933474 3 32 C8.80520742 33.93506914 15.53040939 33.9525628 21.1875 31.5 C22.115625 31.005 23.04375 30.51 24 30 C23.67 28.68 23.34 27.36 23 26 C24.485 26.99 24.485 26.99 26 28 C25.875 29.8125 25.875 29.8125 25 32 C20.43797112 34.83920831 16.83058706 35.43208274 11.5 35.4375 C9.59734375 35.46650391 9.59734375 35.46650391 7.65625 35.49609375 C2.37806587 34.77992988 -0.64719351 32.4279624 -4.25 28.625 C-7.64661189 23.53008217 -9.06854913 18.09073006 -8 12 C-6.11847649 7.06461911 -4.45926799 2.97284533 0 0 Z " transform="translate(189,67)"></path><path d="M0 0 C0.66 0.33 1.32 0.66 2 1 C3.09911549 4.29734646 3.1139456 6.72958745 3.09765625 10.19921875 C3.09443359 11.40771484 3.09121094 12.61621094 3.08789062 13.86132812 C3.07951172 15.12396484 3.07113281 16.38660156 3.0625 17.6875 C3.05798828 18.96173828 3.05347656 20.23597656 3.04882812 21.54882812 C3.03702873 24.69926564 3.02056597 27.84960949 3 31 C1.02 31 -0.96 31 -3 31 C-3.01981934 30.26885986 -3.03963867 29.53771973 -3.06005859 28.78442383 C-3.15552914 25.46009731 -3.26511966 22.13638014 -3.375 18.8125 C-3.4059375 17.66201172 -3.436875 16.51152344 -3.46875 15.32617188 C-3.50742187 14.21435547 -3.54609375 13.10253906 -3.5859375 11.95703125 C-3.6173584 10.93585205 -3.6487793 9.91467285 -3.68115234 8.86254883 C-4.00876795 5.92128312 -4.77312194 3.67975997 -6 1 C-5.34 1 -4.68 1 -4 1 C-0.34019926 6.62898487 -0.64731328 11.80988669 -0.8125 18.375 C-0.82603516 19.39722656 -0.83957031 20.41945313 -0.85351562 21.47265625 C-0.88869783 23.98232049 -0.93792461 26.4908809 -1 29 C-0.01 29 0.98 29 2 29 C1.85991329 25.4789137 1.71189018 21.95820288 1.5625 18.4375 C1.52318359 17.44685547 1.48386719 16.45621094 1.44335938 15.43554688 C1.21827654 10.22401363 0.85894761 5.14646762 0 0 Z " transform="translate(330,71)"></path><path d="M0 0 C0.33 0 0.66 0 1 0 C1 12.21 1 24.42 1 37 C-8 37 -8 37 -10 36 C-10.99 36.495 -10.99 36.495 -12 37 C-24.30517957 38.03676237 -24.30517957 38.03676237 -28.6875 35.25 C-30.79134513 33.20301555 -32.01950037 31.74539897 -33 29 C-32.52949219 29.34933594 -32.05898438 29.69867188 -31.57421875 30.05859375 C-30.95160156 30.51363281 -30.32898438 30.96867187 -29.6875 31.4375 C-29.07261719 31.88996094 -28.45773437 32.34242187 -27.82421875 32.80859375 C-23.56288237 35.59169353 -18.91239957 35.51800347 -14 35 C-11.12853006 33.63002843 -11.12853006 33.63002843 -9 32 C-8.34 32 -7.68 32 -7 32 C-7 32.99 -7 33.98 -7 35 C-4.69 35 -2.38 35 0 35 C0 23.45 0 11.9 0 0 Z " transform="translate(294,65)"></path><path d="M0 0 C2 3 2 3 1.625 6.1875 C1.41875 7.115625 1.2125 8.04375 1 9 C-1.8125 9.625 -1.8125 9.625 -5 10 C-5.99 9.34 -6.98 8.68 -8 8 C-8.375 5 -8.375 5 -8 2 C-4.79191085 -0.1387261 -3.72301503 -0.47730962 0 0 Z " transform="translate(51,49)"></path><path d="M0 0 C5.88040917 5.57884972 5.88040917 5.57884972 6.12939453 10.61962891 C6.13052246 11.64491699 6.13165039 12.67020508 6.1328125 13.7265625 C6.13410156 14.8403125 6.13539063 15.9540625 6.13671875 17.1015625 C6.13285156 18.26429687 6.12898437 19.42703125 6.125 20.625 C6.12886719 21.79546875 6.13273438 22.9659375 6.13671875 24.171875 C6.13542969 25.28304687 6.13414062 26.39421875 6.1328125 27.5390625 C6.13168457 28.56209473 6.13055664 29.58512695 6.12939453 30.63916016 C6 33 6 33 5 34 C3.48071962 34.07179964 1.95832518 34.08392007 0.4375 34.0625 C-0.38878906 34.05347656 -1.21507812 34.04445312 -2.06640625 34.03515625 C-2.70449219 34.02355469 -3.34257812 34.01195312 -4 34 C-4 33.34 -4 32.68 -4 32 C-1.36 32 1.28 32 4 32 C3.91914762 27.74921945 3.80629928 23.499876 3.6875 19.25 C3.66494141 18.0434375 3.64238281 16.836875 3.61914062 15.59375 C3.58369141 14.43359375 3.54824219 13.2734375 3.51171875 12.078125 C3.48553467 11.00981445 3.45935059 9.94150391 3.43237305 8.84082031 C2.95299083 5.69113571 2.01647802 4.39710376 0 2 C0 1.34 0 0.68 0 0 Z " transform="translate(173,68)"></path><path d="M0 0 C0.804375 0.474375 1.60875 0.94875 2.4375 1.4375 C2.1075 2.0975 1.7775 2.7575 1.4375 3.4375 C0.65375 2.9425 -0.13 2.4475 -0.9375 1.9375 C-5.61171842 0.00334065 -9.57692381 0.17147123 -14.5625 0.4375 C-14.8925 1.0975 -15.2225 1.7575 -15.5625 2.4375 C-14.9025 2.1075 -14.2425 1.7775 -13.5625 1.4375 C-11.43359375 1.48828125 -11.43359375 1.48828125 -9 1.75 C-8.19433594 1.82863281 -7.38867188 1.90726562 -6.55859375 1.98828125 C-5.57052734 2.21064453 -5.57052734 2.21064453 -4.5625 2.4375 C-4.2325 3.0975 -3.9025 3.7575 -3.5625 4.4375 C-4.68398438 4.40269531 -4.68398438 4.40269531 -5.828125 4.3671875 C-6.81296875 4.34914063 -7.7978125 4.33109375 -8.8125 4.3125 C-9.78703125 4.28929688 -10.7615625 4.26609375 -11.765625 4.2421875 C-14.5821498 4.43887219 -16.17199036 4.99181084 -18.5625 6.4375 C-18.5625 5.7775 -18.5625 5.1175 -18.5625 4.4375 C-19.8825 4.4375 -21.2025 4.4375 -22.5625 4.4375 C-21.5625 1.4375 -21.5625 1.4375 -19.8125 0.234375 C-12.56415141 -3.13812052 -7.3287252 -3.21435316 0 0 Z " transform="translate(327.5625,67.5625)"></path><path d="M0 0 C0 0.33 0 0.66 0 1 C-0.84304688 1.12117188 -1.68609375 1.24234375 -2.5546875 1.3671875 C-3.65039062 1.53476563 -4.74609375 1.70234375 -5.875 1.875 C-6.96554687 2.03742188 -8.05609375 2.19984375 -9.1796875 2.3671875 C-12.11932714 2.76256513 -12.11932714 2.76256513 -14 5 C-13.44828125 4.83628906 -12.8965625 4.67257813 -12.328125 4.50390625 C-9.73385993 3.94239586 -7.40164589 3.90260992 -4.75 3.9375 C-3.85796875 3.94652344 -2.9659375 3.95554687 -2.046875 3.96484375 C-1.37140625 3.97644531 -0.6959375 3.98804687 0 4 C0.33 4.66 0.66 5.32 1 6 C-0.01320313 5.96519531 -0.01320313 5.96519531 -1.046875 5.9296875 C-1.93890625 5.91164063 -2.8309375 5.89359375 -3.75 5.875 C-4.63171875 5.85179688 -5.5134375 5.82859375 -6.421875 5.8046875 C-9.19221088 6.01456143 -10.71391367 6.43583567 -13 8 C-14.10493335 9.69950428 -14.10493335 9.69950428 -14.75 11.625 C-15.36875 13.295625 -15.36875 13.295625 -16 15 C-16.33 15 -16.66 15 -17 15 C-17 11.04 -17 7.08 -17 3 C-6.57142857 -1.71428571 -6.57142857 -1.71428571 0 0 Z " transform="translate(479,66)"></path><path d="M0 0 C3.3 0 6.6 0 10 0 C10 3.3 10 6.6 10 10 C14.29 10 18.58 10 23 10 C23 12.64 23 15.28 23 18 C22.34 18 21.68 18 21 18 C21 16.02 21 14.04 21 12 C17.04 12 13.08 12 9 12 C9 8.37 9 4.74 9 1 C6.03 1 3.06 1 0 1 C0 0.67 0 0.34 0 0 Z " transform="translate(118,55)"></path><path d="M0 0 C2.97 0 5.94 0 9 0 C9 11.55 9 23.1 9 35 C8.67 35 8.34 35 8 35 C8 24.11 8 13.22 8 2 C6.02 2 4.04 2 2 2 C2 2.99 2 3.98 2 5 C1.34 5 0.68 5 0 5 C-0.33 4.01 -0.66 3.02 -1 2 C-0.67 1.34 -0.34 0.68 0 0 Z " transform="translate(285,65)"></path><path d="M0 0 C0.66 0 1.32 0 2 0 C2 6.27 2 12.54 2 19 C1.01 19 0.02 19 -1 19 C-1.02683987 16.02077407 -1.04676037 13.04178705 -1.0625 10.0625 C-1.07087891 9.21236328 -1.07925781 8.36222656 -1.08789062 7.48632812 C-1.09111328 6.67744141 -1.09433594 5.86855469 -1.09765625 5.03515625 C-1.10289307 4.2862915 -1.10812988 3.53742676 -1.11352539 2.76586914 C-1 1 -1 1 0 0 Z " transform="translate(461,81)"></path><path d="M0 0 C0.66 0 1.32 0 2 0 C1.62918186 2.38526264 1.39565141 3.65724317 -0.4609375 5.265625 C-6.27318929 8.25478306 -11.52306846 8.83062939 -18 8 C-22.1610986 6.46696367 -23.53935571 5.69096643 -26 2 C-21.125 3.875 -21.125 3.875 -20 5 C-17.75365446 5.15289263 -15.50136826 5.22197467 -13.25 5.25 C-12.01765625 5.27578125 -10.7853125 5.3015625 -9.515625 5.328125 C-5.78832674 4.98024383 -3.94948926 4.25035106 -1 2 C-0.67 1.34 -0.34 0.68 0 0 Z " transform="translate(368,94)"></path><path d="M0 0 C0.33 0.99 0.66 1.98 1 3 C-2.42831664 6.18403855 -4.9559435 6.40644407 -9.5625 6.375 C-10.69816406 6.38273437 -11.83382813 6.39046875 -13.00390625 6.3984375 C-16 6 -16 6 -17.90234375 4.4765625 C-18.26457031 3.98929687 -18.62679688 3.50203125 -19 3 C-17.91332031 3.03480469 -17.91332031 3.03480469 -16.8046875 3.0703125 C-10.54432683 3.18717257 -5.68138921 2.84069461 0 0 Z " transform="translate(401,94)"></path><path d="M0 0 C0.33 0 0.66 0 1 0 C1.06058594 1.31355469 1.12117188 2.62710938 1.18359375 3.98046875 C1.26803256 5.71615541 1.35267888 7.45183198 1.4375 9.1875 C1.47681641 10.05181641 1.51613281 10.91613281 1.55664062 11.80664062 C1.76347016 15.95914122 2.00103531 19.94537862 3 24 C1.68 23.67 0.36 23.34 -1 23 C-1.02887512 19.35418313 -1.04675585 15.70839537 -1.0625 12.0625 C-1.07087891 11.02158203 -1.07925781 9.98066406 -1.08789062 8.90820312 C-1.09272461 7.42416992 -1.09272461 7.42416992 -1.09765625 5.91015625 C-1.10289307 4.99371338 -1.10812988 4.07727051 -1.11352539 3.13305664 C-1 1 -1 1 0 0 Z " transform="translate(435,71)"></path><path d="M0 0 C9.66666667 -0.56862745 9.66666667 -0.56862745 14 3 C15.8125 5.1875 15.8125 5.1875 17 7 C16.67 7.66 16.34 8.32 16 9 C15.34 9 14.68 9 14 9 C13.34 8.21625 12.68 7.4325 12 6.625 C7.96931226 3.09814823 4.19899167 2.67637367 -1 2 C-0.67 1.34 -0.34 0.68 0 0 Z " transform="translate(351,67)"></path><path d="M0 0 C0.66 1.32 1.32 2.64 2 4 C0.85660156 4.04898438 -0.28679687 4.09796875 -1.46484375 4.1484375 C-2.95575473 4.22345189 -4.44663892 4.29900028 -5.9375 4.375 C-7.06961914 4.42140625 -7.06961914 4.42140625 -8.22460938 4.46875 C-10.15507395 4.5726315 -12.07942081 4.77895614 -14 5 C-14.33 5.66 -14.66 6.32 -15 7 C-14.8125 5.125 -14.8125 5.125 -14 3 C-9.76872954 0.48768316 -4.80831419 0.39807394 0 0 Z " transform="translate(479,66)"></path><path d="M0 0 C0.70576172 0.52400391 0.70576172 0.52400391 1.42578125 1.05859375 C2.35970703 1.74115234 2.35970703 1.74115234 3.3125 2.4375 C4.23482422 3.11619141 4.23482422 3.11619141 5.17578125 3.80859375 C9.43711763 6.59169353 14.08760043 6.51800347 19 6 C21.87146994 4.63002843 21.87146994 4.63002843 24 3 C24.66 3 25.32 3 26 3 C26 4.65 26 6.3 26 8 C25.01 7.67 24.02 7.34 23 7 C22.01 7.495 22.01 7.495 21 8 C8.69482043 9.03676237 8.69482043 9.03676237 4.3125 6.25 C2.20865487 4.20301555 0.98049963 2.74539897 0 0 Z " transform="translate(261,94)"></path><path d="M0 0 C0.33 0.99 0.66 1.98 1 3 C5.95 3 10.9 3 16 3 C16.33 2.34 16.66 1.68 17 1 C17 2.32 17 3.64 17 5 C11.06 5 5.12 5 -1 5 C-0.67 3.35 -0.34 1.7 0 0 Z " transform="translate(191,76)"></path><path d="M0 0 C0.66 0.33 1.32 0.66 2 1 C-2.19572352 4.05654046 -5.17892276 4.33143207 -10.3125 4.1875 C-11.56675781 4.16042969 -12.82101562 4.13335937 -14.11328125 4.10546875 C-15.54220703 4.05326172 -15.54220703 4.05326172 -17 4 C-16.67 3.01 -16.34 2.02 -16 1 C-14.51886719 1.01740234 -14.51886719 1.01740234 -13.0078125 1.03515625 C-11.72648437 1.04417969 -10.44515625 1.05320312 -9.125 1.0625 C-7.21074219 1.07990234 -7.21074219 1.07990234 -5.2578125 1.09765625 C-2.11335348 1.23176569 -2.11335348 1.23176569 0 0 Z " transform="translate(365,96)"></path><path d="M0 0 C1.83203125 0.2109375 1.83203125 0.2109375 4 1 C7.64602533 6.12998712 9.59327997 11.7636262 10 18 C9.34 18.33 8.68 18.66 8 19 C7.81824219 18.19175781 7.63648438 17.38351563 7.44921875 16.55078125 C7.07216797 14.94783203 7.07216797 14.94783203 6.6875 13.3125 C6.32205078 11.72888672 6.32205078 11.72888672 5.94921875 10.11328125 C5.00739175 7.02424372 3.77627063 4.68182036 2 2 C1.67 2.66 1.34 3.32 1 4 C0.01 4 -0.98 4 -2 4 C-1.34 2.68 -0.68 1.36 0 0 Z " transform="translate(31,34)"></path><path d="M0 0 C0.66 0.33 1.32 0.66 2 1 C1.57847656 1.48210937 1.15695313 1.96421875 0.72265625 2.4609375 C0.17480469 3.09257813 -0.37304688 3.72421875 -0.9375 4.375 C-1.48277344 5.00148438 -2.02804688 5.62796875 -2.58984375 6.2734375 C-4.97697444 9.19618478 -5.23033015 11.42367884 -5.5625 15.125 C-5.64628906 16.03507812 -5.73007813 16.94515625 -5.81640625 17.8828125 C-5.87699219 18.58148438 -5.93757812 19.28015625 -6 20 C-6.66 20 -7.32 20 -8 20 C-8.6538198 12.93874611 -6.91174833 7.92822704 -3 2 C-2.01 1.34 -1.02 0.68 0 0 Z " transform="translate(189,67)"></path><path d="M0 0 C0.66 0 1.32 0 2 0 C2 1.32 2 2.64 2 4 C-4.40488031 6.69679171 -11.33304963 6.9202046 -18 5 C-17.67 4.34 -17.34 3.68 -17 3 C-16.43152344 3.10699219 -15.86304688 3.21398437 -15.27734375 3.32421875 C-9.46303775 4.22694072 -6.18211751 3.80698032 -1 1 C-0.67 0.67 -0.34 0.34 0 0 Z " transform="translate(366,92)"></path><path d="M0 0 C0.66 0 1.32 0 2 0 C1.55005243 1.79379098 1.08975857 3.58498928 0.625 5.375 C0.36976563 6.37273437 0.11453125 7.37046875 -0.1484375 8.3984375 C-1 11 -1 11 -3 13 C-4.42662219 10.14675563 -4.31033868 8.16545451 -4 5 C-2.125 2.125 -2.125 2.125 0 0 Z " transform="translate(379,74)"></path><path d="M0 0 C0.66 0.33 1.32 0.66 2 1 C2.66 1 3.32 1 4 1 C5.52226588 1.10613964 7.04310857 1.23354783 8.5625 1.375 C9.77099609 1.47941406 9.77099609 1.47941406 11.00390625 1.5859375 C11.99197266 1.79089844 11.99197266 1.79089844 13 2 C13.33 2.66 13.66 3.32 14 4 C12.87851562 3.96519531 12.87851562 3.96519531 11.734375 3.9296875 C10.74953125 3.91164063 9.7646875 3.89359375 8.75 3.875 C7.77546875 3.85179688 6.8009375 3.82859375 5.796875 3.8046875 C2.9803502 4.00137219 1.39050964 4.55431084 -1 6 C-1 5.34 -1 4.68 -1 4 C-2.32 4 -3.64 4 -5 4 C-3.73293765 1.46587529 -2.59334288 1.02161992 0 0 Z " transform="translate(310,68)"></path><path d="M0 0 C0.25 6.625 0.25 6.625 -2 10 C-2 7.36 -2 4.72 -2 2 C-2.79664062 2.34224609 -2.79664062 2.34224609 -3.609375 2.69140625 C-4.31578125 2.97886719 -5.0221875 3.26632813 -5.75 3.5625 C-6.44609375 3.85253906 -7.1421875 4.14257812 -7.859375 4.44140625 C-10.30012784 5.07831803 -11.6403655 4.80248831 -14 4 C-12.42032193 3.32471777 -10.83608097 2.66010306 -9.25 2 C-8.36828125 1.62875 -7.4865625 1.2575 -6.578125 0.875 C-4 0 -4 0 0 0 Z " transform="translate(70,55)"></path><path d="M0 0 C0 0.99 0 1.98 0 3 C-9.24 3 -18.48 3 -28 3 C-28 2.67 -28 2.34 -28 2 C-27.28344238 1.97494385 -26.56688477 1.9498877 -25.82861328 1.92407227 C-22.59388486 1.80830249 -19.35946159 1.68549031 -16.125 1.5625 C-14.99707031 1.52318359 -13.86914062 1.48386719 -12.70703125 1.44335938 C-11.63066406 1.40146484 -10.55429687 1.35957031 -9.4453125 1.31640625 C-7.95281982 1.26141968 -7.95281982 1.26141968 -6.43017578 1.20532227 C-3.98730725 0.99892761 -2.41487238 0 0 0 Z " transform="translate(370,81)"></path><path d="M0 0 C3.63 0.33 7.26 0.66 11 1 C11 1.33 11 1.66 11 2 C9.96939453 2.29003906 9.96939453 2.29003906 8.91796875 2.5859375 C8.01691406 2.84632812 7.11585938 3.10671875 6.1875 3.375 C5.29417969 3.63023438 4.40085937 3.88546875 3.48046875 4.1484375 C0.79532104 4.95266661 0.79532104 4.95266661 -2 7 C-1.125 2.25 -1.125 2.25 0 0 Z " transform="translate(347,68)"></path><path d="M0 0 C-0.375 1.9375 -0.375 1.9375 -1 4 C-3.95664519 5.4783226 -6.74229737 5.06032783 -10 5 C-10.33 4.34 -10.66 3.68 -11 3 C-9.54293274 2.49632243 -8.08429904 1.99717444 -6.625 1.5 C-5.81289063 1.2215625 -5.00078125 0.943125 -4.1640625 0.65625 C-2 0 -2 0 0 0 Z " transform="translate(454,95)"></path><path d="M0 0 C1.62463842 -0.05395478 3.24978541 -0.09277195 4.875 -0.125 C5.77992188 -0.14820312 6.68484375 -0.17140625 7.6171875 -0.1953125 C10 0 10 0 12 2 C8.32589215 3.17571451 4.83070817 3.07366746 1 3 C0.67 2.01 0.34 1.02 0 0 Z " transform="translate(387,67)"></path><path d="M0 0 C0.66 0 1.32 0 2 0 C1.75390625 1.859375 1.75390625 1.859375 1 4 C-0.84765625 5.265625 -0.84765625 5.265625 -3.0625 6.25 C-4.16271484 6.75273438 -4.16271484 6.75273438 -5.28515625 7.265625 C-6.13400391 7.62914063 -6.13400391 7.62914063 -7 8 C-7.33 7.34 -7.66 6.68 -8 6 C-6.20963542 5.0234375 -4.41927083 4.046875 -2.62890625 3.0703125 C-0.83381685 2.08589976 -0.83381685 2.08589976 0 0 Z " transform="translate(368,94)"></path><path d="M0 0 C0.33 0.66 0.66 1.32 1 2 C1.66 2 2.32 2 3 2 C3 2.66 3 3.32 3 4 C1.68 4 0.36 4 -1 4 C-0.67 5.32 -0.34 6.64 0 8 C-0.66 7.67 -1.32 7.34 -2 7 C-2.625 3.9375 -2.625 3.9375 -3 1 C-2.01 0.67 -1.02 0.34 0 0 Z " transform="translate(342,88)"></path><path d="M0 0 C1.65 0 3.3 0 5 0 C4.34 1.98 3.68 3.96 3 6 C2.01 5.67 1.02 5.34 0 5 C0 3.35 0 1.7 0 0 Z " transform="translate(304,72)"></path><path d="M0 0 C0 1.65 0 3.3 0 5 C-0.99 4.67 -1.98 4.34 -3 4 C-3.99 4.33 -4.98 4.66 -6 5 C-4.87312259 1.61936778 -3.78825335 0 0 0 Z " transform="translate(287,97)"></path></svg>